<?xml version="1.0" standalone="no"?>
<!DOCTYPE svg PUBLIC "-//W3C//DTD SVG 1.1//EN" "http://www.w3.org/Graphics/SVG/1.1/DTD/svg11.dtd" >
<svg xmlns="http://www.w3.org/2000/svg">
<metadata>
Created by FontForge 20120731 at Fri Dec  4 19:24:41 2015
 By Ads
</metadata>
<defs>
<font id="iconfont" horiz-adv-x="1024" >
  <font-face 
    font-family="iconfont"
    font-weight="500"
    font-stretch="normal"
    units-per-em="1024"
    panose-1="2 0 6 3 0 0 0 0 0 0"
    ascent="896"
    descent="-128"
    x-height="792"
    bbox="0 -224 1060 819"
    underline-thickness="50"
    underline-position="-100"
    unicode-range="U+0078-E63D"
  />
<missing-glyph horiz-adv-x="374" 
d="M34 0v682h272v-682h-272zM68 34h204v614h-204v-614z" />
    <glyph glyph-name=".notdef" horiz-adv-x="374" 
d="M34 0v682h272v-682h-272zM68 34h204v614h-204v-614z" />
    <glyph glyph-name=".null" horiz-adv-x="0" 
 />
    <glyph glyph-name="nonmarkingreturn" horiz-adv-x="341" 
 />
    <glyph glyph-name="x" unicode="x" horiz-adv-x="1001" 
d="M281 543q-27 -1 -53 -1h-83q-18 0 -36.5 -6t-32.5 -18.5t-23 -32t-9 -45.5v-76h912v41q0 16 -0.5 30t-0.5 18q0 13 -5 29t-17 29.5t-31.5 22.5t-49.5 9h-133v-97h-438v97zM955 310v-52q0 -23 0.5 -52t0.5 -58t-10.5 -47.5t-26 -30t-33 -16t-31.5 -4.5q-14 -1 -29.5 -0.5
t-29.5 0.5h-32l-45 128h-439l-44 -128h-29h-34q-20 0 -45 1q-25 0 -41 9.5t-25.5 23t-13.5 29.5t-4 30v167h911zM163 247q-12 0 -21 -8.5t-9 -21.5t9 -21.5t21 -8.5q13 0 22 8.5t9 21.5t-9 21.5t-22 8.5zM316 123q-8 -26 -14 -48q-5 -19 -10.5 -37t-7.5 -25t-3 -15t1 -14.5
t9.5 -10.5t21.5 -4h37h67h81h80h64h36q23 0 34 12t2 38q-5 13 -9.5 30.5t-9.5 34.5q-5 19 -11 39h-368zM336 498v228q0 11 2.5 23t10 21.5t20.5 15.5t34 6h188q31 0 51.5 -14.5t20.5 -52.5v-227h-327z" />
    <glyph glyph-name="uniE600" unicode="&#xe600;" 
d="M620 272q50 28 80 77.5t30 109.5q0 88 -62.5 150.5t-150.5 62.5t-150.5 -62.5t-62.5 -150.5q0 -58 29 -107t77 -77q-63 -21 -112 -64t-76.5 -103.5t-27.5 -127.5v-13h57v13q0 69 35 128t94.5 93t130.5 34q108 0 184 -74.5t76 -180.5v-13h57v4v5v4q0 33 -7 65t-20 60.5
t-31.5 54.5t-41.5 47t-50.5 38t-57.5 27zM358 459q0 43 21 80t58 58t80 21q66 0 113 -46.5t47 -112.5t-47 -113t-113 -47t-112.5 47t-46.5 113z" />
    <glyph glyph-name="uniE601" unicode="&#xe601;" 
d="M961 268v35h-1l-422 422v1l-25 25v-1v1l-25 -25v-1l-423 -422h1h-1v-35h107v-413v-1h682v1v341h-1v0q0 7 -5 12.5t-12 5.5q-5 0 -9 -2.5t-6.5 -6.5t-2.5 -9v0v-306h-180v234h-250v-234h-180v413v0h-93l398 398l398 -398h-75q-8 0 -13 -5t-5 -12q0 -4 1.5 -7t4 -5.5
t5.5 -4t7 -1.5v0h125zM423 88h180v-198h-180v198z" />
    <glyph glyph-name="uniE602" unicode="&#xe602;" 
d="M377 215l-143 512h-45h-146v-43h158l140 -500l4 -12h551v43h-519zM937 599h-549h-44l82 -299h2h469h2l82 299h-44zM866 343h-407l-59 213h525zM472 87q-17 0 -33 -7t-27.5 -18.5t-18 -27t-6.5 -33.5q0 -35 25 -60t60 -25t60 25t25 60.5t-25 60.5t-60 25zM770.5 87
q-35.5 0 -60.5 -25t-25 -61q0 -17 7 -33t18.5 -27t27 -18t33.5 -7q35 0 60 25t25 60.5t-25 60.5t-60.5 25z" />
    <glyph glyph-name="uniE603" unicode="&#xe603;" 
d="M835 15q-24 17 -93 45.5t-106 39.5q-22 10 -22 68q30 24 56 74.5t33 96.5q10 3 18 9t15 15.5t11 23.5t5 31q1 13 -0.5 24.5t-5 18t-6.5 11.5t-6 7l-2 2q0 1 0.5 4t1.5 12t1 19v24q0 15 -1 29t-3.5 31t-6.5 33t-10.5 33t-14.5 33q-16 30 -45.5 50t-61.5 25.5t-49.5 7
t-29.5 1.5q-6 -2 -20 -0.5t-37 -3.5t-46 -12.5t-46 -25t-37 -42.5q-10 -20 -17.5 -42.5t-11 -42.5t-5.5 -40.5t-2 -37t1 -29t1 -19.5l1 -7l-2 -3q-2 -1 -6 -6t-6.5 -11.5t-4.5 -18t-1 -24.5q2 -33 15.5 -53t33.5 -26q5 -30 18.5 -63.5t32.5 -62.5t38 -45q1 -2 1 -6t-1 -14
t-2.5 -19t-6.5 -17.5t-12 -11.5q-38 -11 -107 -39.5t-93 -45.5q-3 -2 -14 -9q-132 -80 -162 -161q-7 -19 -9 -37h502h10h502q-2 24 -12 47t-25.5 42t-32 35.5t-36 30.5t-34 23.5t-28.5 18t-17 10.5z" />
    <glyph glyph-name="uniE604" unicode="&#xe604;" 
d="M914 509q0 7 -3 13l-118 149q-3 6 -8.5 9t-12.5 3h-117h-160h-246q-13 0 -20 -12l-118 -149q-2 -3 -2.5 -6.5t-0.5 -6.5v-502q0 -18 6.5 -34t18 -28t27.5 -19t34 -7h301h160h173q36 0 61 25.5t25 62.5v502zM759 635l102 -126h-334v126h128h104zM263 635h232v-126h-334z
M828 -33h-173h-160h-301q-16 0 -27 11.5t-11 28.5v454h710v-454q0 -17 -11 -28.5t-27 -11.5z" />
    <glyph glyph-name="uniE605" unicode="&#xe605;" 
d="M499 341q-23 -24 -25 -26q-3 -3 -7.5 -7t-8 -8t-6.5 -7t-7 0q-4 4 -172 173l-4 4l176 176q3 4 7 0q20 -20 44 -44.5t39.5 -39.5t46.5 -46l41 -41q3 -6 0 -10q-7 -6 -14 -13.5t-18 -18t-14 -14.5q19 -20 20 -21q3 -3 168 -169l101 -101q3 -3 5.5 -6.5t4.5 -7t3.5 -7
t2.5 -7.5t2 -9q3 -18 -7.5 -33.5t-25.5 -22.5q-14 -5 -31 -3q-14 2 -27 14l-52 52q-34 34 -61.5 62t-52.5 52q-11 11 -124 125q-1 0 -4 4zM245 80l-3 3q-5 4 -7 5q-7 6 -10.5 15t-3 18t6 16.5t14.5 12.5q5 2 11.5 3t13.5 1h224q25 0 35 -18q5 -8 5.5 -17.5t-3.5 -18
t-13 -13.5q-2 -1 -3.5 -2t-3.5 -2.5t-4 -2.5l1 -1h2h3h10h12h10h11q13 0 23.5 -10.5t10.5 -23.5q1 -25 -22 -35q-6 -3 -13 -3h-54h-292h-6q-3 0 -6 1l-6 2q-3 1 -5.5 3t-5.5 4q-9 9 -10.5 22t5.5 23q10 17 28 17h44h1v1zM238 443l2 -1l3 -3q142 -142 173 -174q5 -4 0 -8
q-15 -14 -26 -24q-5 -5 -14 -6.5t-17.5 1t-13.5 7.5q-23 24 -66.5 67t-52.5 52q-11 11 -17 19q-7 8 -6.5 20.5t7.5 20.5l4 4q3 3 5 5.5t4.5 5t4.5 5t5 5t5 4.5zM655 499q-2 3 -8 8.5t-10.5 10.5t-8.5 9q-12 11 -37 36t-39 39.5t-35 35.5l-38 38q-5 5 0 9q3 3 6 5t6 5l5 5
l6 6q11 11 25 10t24 -11q19 -18 131 -131q11 -11 10 -26q0 -7 -3 -13.5t-8 -11.5l-4 -4l-4 -4q-2 -2 -4.5 -4t-4.5 -3.5t-4 -3.5z" />
    <glyph glyph-name="uniE606" unicode="&#xe606;" 
d="M818 221q-28 62 -42 115t-15 83t5 54.5t10 30t7 9.5q2 2 0 4l-4 1q-5 -2 -15.5 -7t-33.5 -22t-40.5 -37.5t-29 -53.5t-6.5 -70q-19 17 -38.5 38t-48.5 66t-44.5 90.5t-12.5 108t34 122.5q1 2 0 4q-1 1 -2 1h-2q-7 -3 -19 -9.5t-38.5 -28t-46.5 -49.5q-92 -123 -29 -310
q22 -81 -36 -156q11 40 10 80q-3 107 -95 160q0 1 -1 1t-2 -1q-2 -1 -2 -4q24 -135 -21 -189q-37 -45 -57 -106t-5 -118q29 -105 177 -157q12 -4 24.5 -7.5t25 -6t26.5 -5.5q1 0 2 0.5t2 1.5q0 3 -2 5q-111 48 -64 159q42 92 23 139q58 -33 47 -88q0 -1 0.5 -2t1.5 -1
q2 -2 4 -0.5t6.5 6t15 16t20 25t18.5 32.5t13.5 38.5t2 43.5t-12.5 48q10 -6 19.5 -13.5t21.5 -24t18 -35.5t5.5 -48.5t-11.5 -62.5q-6 -22 1 -45t12.5 -30.5t10.5 -12.5l5 -1q2 2 1 4q-2 4 -3.5 10t-3 21t0.5 28t11 29.5t25 27.5q-10 -62 13 -90q39 -47 31 -96
q-5 -38 -44 -63q-3 -2 -2 -5q1 -1 2 -1.5t3 0.5q140 46 184 143q40 90 -10 211z" />
    <glyph glyph-name="uniE607" unicode="&#xe607;" 
d="M512 -220q-103 0 -197 39q-91 39 -161 109t-109 161q-40 95 -40 198t40 197q39 91 109 161q35 35 75.5 62.5t85.5 46.5q94 40 197 40t198 -40q91 -38 161 -109q35 -35 62 -75.5t47 -85.5q10 -23 17 -47.5t12 -49t7.5 -50t2.5 -50.5q0 -103 -39 -198q-20 -45 -47 -85.5
t-62 -75.5q-70 -70 -161 -109q-95 -39 -198 -39zM512 763q-96 0 -184.5 -37.5t-152.5 -101.5t-101.5 -152.5t-37.5 -185t37.5 -184.5t101.5 -152t152.5 -102t185 -38t185 38t152 102t101.5 152t38 185q0 64 -17.5 126t-48 114t-74.5 96t-96.5 75t-114 48t-126.5 17zM466 323
l-15 12q35 39 64 55.5t50 16.5q6 0 10 -1.5t7 -4t4.5 -6t1.5 -7.5q0 -10 -23 -87q-37 -126 -37 -151q0 -5 2.5 -8.5t5.5 -3.5q11 0 58 44l14 -14q-49 -45 -71 -58t-37 -13q-12 0 -19.5 8t-7.5 22q0 44 54 216q2 8 2 14q0 7 -6 7q-4 0 -8 -1t-8 -4q-9 -6 -41 -36zM606 557
q10 0 17.5 -7t7.5 -19q0 -15 -11 -27q-6 -6 -12 -9t-12 -3t-10.5 2t-7.5 5l-4 6q-2 3 -2.5 6.5t-0.5 7.5q0 16 10 27t25 11z" />
    <glyph glyph-name="uniE608" unicode="&#xe608;" horiz-adv-x="1061" 
d="M713 392h-55q0 -35 -17 -64.5t-46.5 -46.5t-64.5 -17q-53 0 -90.5 37.5t-37.5 90.5h-55q0 -76 53.5 -129.5t129.5 -53.5t129.5 53.5t53.5 129.5zM1060 201q0 69 -35 126.5t-93 88.5q-2 108 -56 199t-146 144t-200 53t-200 -53t-146 -144t-56 -199q-58 -31 -93 -88.5
t-35 -126.5q0 -84 51.5 -149.5t130.5 -86.5l-55 -177h56l18 55l50 165h-3h-1q-80 0 -136 56t-56 136q0 31 9.5 59.5t27 52t40.5 41.5q16 -109 84.5 -194.5t170.5 -123.5l-59 -192l-17 -55h55l18 55l78 226q-120 24 -199.5 119.5t-79.5 221.5q0 71 27.5 135t74 110.5
t110.5 74t135 27.5t135 -27.5t110.5 -74t74 -110.5t27.5 -135q0 -126 -79.5 -221.5t-199.5 -119.5l78 -226l19 -55h54l-17 55l-59 192q102 38 170.5 123.5t84.5 194.5q23 -18 40.5 -41.5t27 -52t9.5 -59.5q0 -52 -25.5 -96.5t-69.5 -70t-96 -25.5h-2h-2l49 -165l18 -55h56
l-55 177q79 21 130.5 86.5t51.5 149.5z" />
    <glyph glyph-name="uniE609" unicode="&#xe609;" 
d="M760 670h-179q-1 2 -1.5 4t-1.5 4t-2.5 4t-3 3.5t-3.5 2.5l-4 2q-2 1 -4.5 2t-4.5 1.5t-5 0.5h-2v7q0 19 -13.5 32.5t-32.5 13.5h-40q-13 0 -23.5 -6t-16.5 -17t-6 -23v-7h-3q-11 0 -19 -7t-11 -17h-178q-7 0 -14 -2t-12.5 -5.5t-10 -8t-8 -10.5t-5.5 -12.5t-2 -13.5
v-714q0 -22 15 -37t37 -15h554q21 0 36 15t15 37v714q0 21 -15 36.5t-36 15.5zM449 701q0 6 4 10t10 4h40q6 0 10 -4t4 -10v-7h-68v7zM768 -96q0 -9 -8 -9h-554q-4 0 -6.5 2.5t-2.5 6.5v714q0 9 9 9h178v-1q0 -12 8.5 -21t21.5 -9h137q13 0 22 9t9 21v1h178q8 0 8 -9v-714z
M676 451h-228q-5 0 -9.5 -2.5t-7 -7t-2.5 -9.5t2.5 -9t7 -6.5t9.5 -2.5h228q7 0 12.5 5.5t5.5 13t-5.5 13t-12.5 5.5zM676 318h-228q-5 0 -9.5 -2.5t-7 -6.5t-2.5 -9q0 -8 5.5 -13t13.5 -5h228q5 0 9 2.5t6.5 6.5t2.5 9t-2.5 9t-6.5 6.5t-9 2.5zM676 180h-228
q-5 0 -9.5 -2.5t-7 -7t-2.5 -9.5q0 -7 5.5 -12.5t13.5 -5.5h228q7 0 12.5 5.5t5.5 12.5q0 5 -2.5 9.5t-6.5 7t-9 2.5zM676 47h-228q-5 0 -9.5 -2.5t-7 -6.5t-2.5 -9t2.5 -9.5t7 -6.5t9.5 -2h228q5 0 9 2t6.5 6.5t2.5 9.5q0 7 -5.5 12.5t-12.5 5.5zM367 478l-46 -46l-28 28
q-8 9 -16.5 0.5t-0.5 -17.5l37 -36q1 -2 3.5 -3t5 -1t4.5 1t4 3l54 54q9 8 0 17q-3 4 -8 4t-9 -4zM367 337l-46 -46l-28 28q-8 9 -16.5 0.5t-0.5 -17.5l37 -36q1 -2 3.5 -3t5 -1t4.5 1t4 3l54 54q9 8 0 17q-3 3 -8 3t-9 -3zM330 162zM300 162q0 12 9 21t21.5 9t21 -9
t8.5 -21t-8.5 -21t-21 -9t-21.5 9t-9 21zM330 25zM300 25q0 12 9 21t21.5 9t21 -9t8.5 -21t-8.5 -21t-21 -9t-21.5 9t-9 21z" />
    <glyph glyph-name="uniE60A" unicode="&#xe60a;" 
d="M991 -139q0 -28 1 -33q0 -12 -12 -16t-23.5 0.5t-11.5 15.5v33q0 36 -10 71t-28 65t-41 57.5t-50 51t-54.5 43t-55.5 35t-51.5 26.5t-43.5 17q52 16 98.5 60.5t75.5 108t29 128.5q0 103 -72.5 174.5t-193.5 71.5t-191.5 -70.5t-70.5 -175.5q0 -96 61.5 -183.5
t139.5 -113.5q-33 -10 -73 -30.5t-87.5 -54.5t-86 -74t-64 -94t-25.5 -109v-33q0 -7 -4.5 -12t-11.5 -7t-13.5 -1.5t-11.5 6t-5 14.5v33q0 122 82 221t205 143q-72 44 -113 125.5t-41 169.5q0 60 25 115t66.5 94.5t99 62.5t119.5 23q83 0 155 -39t114.5 -107t42.5 -149
q0 -89 -40.5 -171t-111.5 -125q125 -44 204 -143t79 -224z" />
    <glyph glyph-name="uniE60B" unicode="&#xe60b;" 
d="M418 748h-303q-21 0 -36 -15t-15 -37v-302q0 -21 15 -36t36 -15h303q6 0 11.5 1.5t10.5 4t9.5 6t8 8t6 9.5t4 10.5t1.5 11.5v302q0 22 -15 37t-36 15zM405 442q0 -14 -10.5 -24.5t-24.5 -10.5h-207q-14 0 -24.5 10.5t-10.5 24.5v207q0 9 5 17t13 13t17 5h207
q14 0 24.5 -10.5t10.5 -24.5v-207zM909 748h-302q-14 0 -25.5 -7t-18.5 -19t-7 -26v-302q0 -14 7 -25.5t18.5 -18.5t25.5 -7h302q14 0 26 7t18.5 18.5t6.5 25.5v302q0 33 -29 47q-11 4 -22 5zM896 442q0 -14 -10 -24.5t-25 -10.5h-206q-15 0 -25 10.5t-10 24.5v207
q0 7 2.5 13.5t7.5 11t11.5 7.5t13.5 3h206q15 0 25 -10.5t10 -24.5v-207zM418 256h-303q-21 0 -36 -15t-15 -36v-302q0 -21 15 -36t36 -15h303q13 0 25 6.5t19 18.5t7 26v302q0 21 -15 36t-36 15zM405 -49q0 -15 -10.5 -25t-24.5 -10h-207q-14 0 -24.5 10t-10.5 25v206
q0 15 10.5 25t24.5 10h207q14 0 24.5 -10t10.5 -25v-206zM909 256h-302q-21 0 -36 -15t-15 -36v-302q0 -21 15 -36t36 -15h302q21 0 36 15t15 36v302q0 33 -29 46q-11 5 -22 5z" />
    <glyph glyph-name="uniE60C" unicode="&#xe60c;" 
d="M791 404q-7 0 -12.5 -5t-5.5 -13v-330q0 -9 -5 -17.5t-13.5 -13.5t-18.5 -5h-457q-6 0 -11.5 2t-10 5t-8 7.5t-5.5 10.5t-2 11v458q0 8 3 14.5t8 11.5t11.5 8t14.5 3h311q5 0 9 2.5t6.5 6.5t2.5 9q0 4 -1.5 7.5t-4 6t-5.5 3.5t-7 1h-330q-22 0 -38.5 -16t-16.5 -39v-494
q0 -23 16.5 -39t38.5 -16h495q22 0 38.5 16t16.5 39v348q0 5 -2.5 9t-7 6.5t-9.5 2.5zM430 225.5q5 -5.5 12.5 -5.5t13.5 6l329 331q2 2 3.5 5.5t1.5 7t-1.5 7t-3.5 5.5q-4 4 -8.5 5t-9.5 0t-8 -5l-329 -330q-5 -6 -5 -13.5t5 -13z" />
    <glyph glyph-name="uniE60D" unicode="&#xe60d;" 
d="M836 744q-28 0 -53 -11t-43.5 -29t-29 -43.5t-10.5 -53.5q0 -19 5 -37l-399 -168q-12 21 -30 36t-40.5 24t-47.5 9q-57 0 -97 -40t-40 -97t40 -97t97 -40q59 0 100 44l257 -185q-16 -30 -16 -63q0 -57 40 -97t96 -40q37 0 68.5 18.5t50 49.5t18.5 69q0 56 -40 96t-97 40
q-60 0 -101 -45l-256 185q5 9 8.5 19.5t5.5 22t2 23.5q0 18 -5 37l399 167q19 -31 50 -49t68 -18q57 0 97 40t40 96.5t-40 96.5t-97 40zM665 95q43 0 73 -30t30 -72.5t-30 -72.5t-72.5 -30t-72.5 30t-30 73q0 55 47 86q26 16 55 16zM187.5 231q-42.5 0 -72.5 30.5t-30 73
t30 72.5t72.5 30t72.5 -30t30 -72.5t-30 -73t-72.5 -30.5zM836 505q-42 0 -72 30t-30 72.5t30 72.5t72 30t72 -30t30 -72.5t-30 -72.5t-72 -30z" />
    <glyph glyph-name="uniE60E" unicode="&#xe60e;" 
d="M746 329l-407 407q-12 12 -30 12t-31 -12q-5 -5 -8 -11.5t-4 -13t0 -13t4 -13t8 -11.5l377 -376l-374 -373q-12 -13 -12 -31t12 -30q7 -7 15 -10t16 -3t16 3t15 10l400 400l2 2h1v2q13 12 13 30t-13 31z" />
    <glyph glyph-name="uniE60F" unicode="&#xe60f;" 
d="M278 259l407 -407q12 -12 30 -12t31 12q5 5 8 11.5t4 13t0 13t-4 13t-8 11.5l-377 376l374 373q5 5 8 11.5t4 13t0 13t-4 12.5t-8 11q-13 13 -31 13t-31 -13l-400 -400l-2 -2q-1 -1 -1 -2q-13 -12 -13 -30t13 -31z" />
    <glyph glyph-name="uniE610" unicode="&#xe610;" 
d="M224 426q0 -38 21.5 -93.5t43.5 -91.5l21 -36l202 -315l190 315q4 5 10.5 14.5t23 37.5t29.5 54t23.5 58t10.5 57q0 119 -84 203.5t-203 84.5q-78 0 -144.5 -38.5t-105 -105t-38.5 -144.5zM374 427q0 57 40.5 97t97.5 40t97 -40t40 -97q0 -28 -11 -53.5t-29.5 -44
t-43.5 -29t-53 -10.5q-57 0 -97.5 40t-40.5 97z" />
    <glyph glyph-name="uniE611" unicode="&#xe611;" 
d="M746 703l-33 33l-448 -448l33 -34l415 -415l33 33l-415 416z" />
    <glyph glyph-name="uniE612" unicode="&#xe612;" 
d="M574 301l289 280q10 10 10 24.5t-10.5 24.5t-25 10t-25.5 -10l-289 -280l-289 280q-10 10 -25 10t-25.5 -10t-10.5 -24.5t10 -24.5l289 -280l-289 -280q-10 -10 -10 -24.5t10 -24.5q7 -7 16.5 -9t18.5 0t16 9l289 280l289 -280q11 -10 25.5 -10t25.5 10q7 7 9.5 16t0 18
t-9.5 15z" />
    <glyph glyph-name="uniE613" unicode="&#xe613;" 
d="M871 559l-88 88l88 89l89 -89zM517 205l-64 -65l-134 -45l45 134l65 64l309 310l89 -89zM192 -32h639v320h129v-389q0 -15 -8 -29t-21 -22.5t-27 -8.5h-787q-22 0 -37.5 16t-15.5 39v787q0 23 15.5 39t37.5 16h395v-128h-320v-640z" />
    <glyph glyph-name="uniE614" unicode="&#xe614;" 
d="M826 245l-288 289q-4 5 -10 7t-13 2l-1 1h-2l-13 -3l-11 -7l-259 -259q-7 -6 -9 -14.5t0 -16.5t8 -14q4 -3 7.5 -5t7.5 -3.5t8 -1.5q13 0 23 10l206 206v-564q0 -13 9.5 -22.5t22.5 -9.5t22.5 9.5t9.5 22.5v565l236 -237q5 -5 11 -7.5t12 -2.5q13 0 22.5 9.5t9.5 22.5
t-9 23zM864 608h-704q-13 0 -22.5 9.5t-9.5 22.5t9.5 22.5t22.5 9.5h704q13 0 22.5 -9.5t9.5 -22.5t-9.5 -22.5t-22.5 -9.5z" />
    <glyph glyph-name="uniE615" unicode="&#xe615;" 
d="M922 15v-27q0 -46 -32 -78t-78 -32h-600q-46 0 -78 32t-32 78v136q0 12 8 20t19.5 8t19.5 -8t8 -20v-136q0 -15 7.5 -27.5t20 -20t27.5 -7.5h600q15 0 27.5 7.5t20 20t7.5 27.5v136q0 12 8 20t19 8q8 0 14 -4t10 -10t4 -14v-109zM821 323l-282 282v-481q0 -7 -3.5 -13.5
t-10 -10t-13.5 -3.5t-13.5 3.5t-10 10t-3.5 13.5v479l-282 -282q-8 -8 -19.5 -8t-19.5 8t-8 19.5t8 19.5l326 326l1 2l1 1l1 1l1 1q3 3 7.5 4.5t8.5 1.5q2 1 4 0q9 0 16 -6v-1h1l329 -328q8 -8 8 -19.5t-8 -19.5t-19.5 -8t-19.5 8v0z" />
    <glyph glyph-name="uniE616" unicode="&#xe616;" 
d="M876 -98h-737q-13 0 -25.5 5t-21.5 14t-14 21.5t-5 25.5v561q0 15 6 27.5t18 21.5q22 17 59 17h43l5 30q1 28 29 48q23 16 49 16h258q13 0 26.5 -4t24.5 -12q15 -9 23.5 -21.5t8.5 -26.5l5 -30h264q11 0 20 -6.5t16 -15.5q14 -21 14 -44v-561q0 -27 -19.5 -46.5
t-46.5 -19.5zM156 544q-20 0 -28 -6q-4 -5 -4 -9v-561q0 -4 2 -7.5t5.5 -5.5t7.5 -2h737q6 0 10.5 4.5t4.5 10.5v561q0 4 -1.5 8t-4.5 7h-301l-12 77v1q-2 5 -11 10q-11 6 -21 6h-258q-9 0 -19 -6q-8 -6 -8 -9v-2v-2l-12 -75h-87zM405 53q-34 0 -66 10.5t-57.5 30t-45 45.5
t-30.5 58t-11 66q0 87 61.5 148.5t148.5 61.5t148.5 -61.5t61.5 -148.5t-61.5 -148.5t-148.5 -61.5zM405 421q-43 0 -79.5 -21t-57.5 -57.5t-21 -79.5q0 -66 46.5 -112.5t112 -46.5t112 46.5t46.5 112t-46.5 112t-112.5 46.5zM794 393h-123q-10 0 -17.5 7.5t-7.5 17.5
q0 6 2 10.5t5.5 8t8 5.5t9.5 2h123q11 0 18.5 -7.5t7.5 -18.5q0 -7 -3.5 -12.5t-9.5 -9t-13 -3.5z" />
    <glyph glyph-name="uniE617" unicode="&#xe617;" 
d="M271 664q55 0 95 -40q19 -19 29 -43.5t10 -51.5v-134h-134q-56 0 -95.5 39.5t-39.5 94.5q0 18 4.5 35t13.5 32.5t21.5 28t28 21.5t32.5 13.5t35 4.5zM271 735q-56 0 -103.5 -27.5t-75 -75t-27.5 -103.5q0 -85 60 -145.5t146 -60.5h159q19 0 33 14t14 33v159
q0 56 -27.5 103.5t-75 75t-103.5 27.5zM271 183h134v-134q0 -56 -39.5 -95t-95 -39t-95 39t-39.5 95t39.5 95t95.5 39zM271 255q-86 0 -146 -60.5t-60 -145.5t60 -145.5t145.5 -60.5t146 60.5t60.5 145.5v160q0 12 -6.5 23t-17 17t-23.5 6h-159zM751 664q56 0 95 -40
q19 -19 29 -43.5t10 -51.5q0 -13 -2.5 -26t-7.5 -25t-12 -23t-17 -21q-39 -39 -95 -39h-134v134q0 11 1.5 21.5t4.5 20.5t8 19.5t11 18t14 15.5q39 40 95 40zM751 735q-56 0 -103.5 -27.5t-75 -75t-27.5 -103.5v-159q0 -19 13.5 -33t32.5 -14h160q56 0 103.5 27.5t75 75
t27.5 103.5q0 86 -60.5 146t-145.5 60zM751 183q27 0 51.5 -10t43.5 -29q39 -39 39 -95q0 -27 -10 -51.5t-29 -43.5q-13 -13 -28 -21.5t-32 -13t-35 -4.5q-13 0 -26 2.5t-25.5 7.5t-23.5 12t-20 17q-39 39 -39 95v134h134zM751 255h-160q-19 0 -32.5 -13.5t-13.5 -32.5v-160
q0 -56 27.5 -103.5t75 -75t103.5 -27.5q42 0 80 16.5t65.5 44t44 65.5t16.5 80q0 85 -60.5 145.5t-145.5 60.5z" />
    <glyph glyph-name="uniE618" unicode="&#xe618;" horiz-adv-x="1025" 
d="M512.5 -224q-104.5 0 -199.5 40q-91 39 -162 110t-110 162q-40 95 -40 199.5t40 199.5q39 91 110 162t162 110q95 40 200 40q25 0 50.5 -2.5t50.5 -7.5t49.5 -12.5t48.5 -17.5q91 -39 162 -110t110 -162q40 -95 40 -200q0 -20 -1.5 -40.5t-5 -40.5t-8 -40t-11 -39.5
t-14.5 -38.5q-39 -91 -110 -162q-35 -35 -76 -62.5t-86 -47.5q-95 -40 -199.5 -40zM513 738q-53 0 -103.5 -12t-95 -34.5t-83.5 -53t-69.5 -69.5t-53 -83.5t-34.5 -95t-12 -103.5q0 -91 36 -174.5t96 -143.5t143.5 -96t175 -36t175 36t143.5 96t96 143.5t36 175t-36 175
t-96 143.5t-143.5 96t-174.5 36zM478 576l36 20q21 -34 38 -70h196v-41h-412v-185q-5 -173 -69 -260q-12 17 -29 38q55 79 56 232v216h211q-12 25 -27 50zM503 470h42v-69h190v-40h-190v-79h150v-238h-40v36h-231v-36h-40v238h119v188zM655 242h-231v-123h231v123z" />
    <glyph glyph-name="uniE619" unicode="&#xe619;" 
d="M987 680l-94 93q-13 13 -30 17.5t-34 0t-29 -17.5l-140 -186q-17 -25 -18 -49t18 -44l57 -57q-76 -101 -151 -176q-85 -85 -202 -172l-55 55q-20 19 -44 18t-49 -18l-187 -140q-23 -17 -21.5 -45t21.5 -48l93 -93q15 -15 33 -23t35.5 -9.5t38 2.5t39.5 11.5t41 18.5
q9 5 23.5 13.5t60 38t89 61.5t102.5 80.5t108 98.5q74 73 147.5 169t110.5 156l37 59q10 28 13 36.5t9.5 31.5t6.5 34t-1 28t-8.5 30.5t-19.5 25.5zM940 540q-41 -77 -122 -184.5t-158 -188.5q-53 -56 -153 -132t-171.5 -123t-73.5 -47q-15 -9 -50 -8.5t-47 12.5l-60 59
q-23 40 0 59l119 89q36 24 60 0l73 -73q1 1 4 3q25 17 48.5 34t81 63.5t106 92.5t106.5 114t99 134l-75 75q-11 13 -10.5 28.5t10.5 30.5l90 119q7 11 18.5 13.5t22 -1t18.5 -12.5l60 -59q16 -20 15.5 -48t-11.5 -50z" />
    <glyph glyph-name="uniE61A" unicode="&#xe61a;" 
d="M128 343h768q18 0 30.5 -12.5t12.5 -30.5t-12.5 -30.5t-30.5 -12.5h-768q-18 0 -30.5 12.5t-12.5 30.5t12.5 30.5t30.5 12.5z" />
    <glyph glyph-name="uniE61B" unicode="&#xe61b;" 
d="M512 727q18 0 30.5 -12.5t12.5 -30.5v-341h341q18 0 30.5 -12.5t12.5 -30.5t-12.5 -30.5t-30.5 -12.5h-341v-341q0 -18 -12.5 -30.5t-30.5 -12.5t-30.5 12.5t-12.5 30.5v341h-341q-18 0 -30.5 12.5t-12.5 30.5t12.5 30.5t30.5 12.5h341v341q0 18 12.5 30.5t30.5 12.5z
" />
    <glyph glyph-name="uniE61C" unicode="&#xe61c;" 
d="M731 171q-24 0 -46 6t-42 16q-31 -23 -68 -36t-78 -13q-42 0 -81.5 14.5t-71.5 39.5q-30 -13 -63 -13q-64 0 -109.5 45.5t-45.5 109.5t45 109.5t109 45.5q30 61 88.5 98.5t128.5 37.5q57 0 107 -25t84 -68q11 2 21.5 3.5t21.5 1.5q77 0 131 -54.5t54 -131.5
q0 -38 -14.5 -72.5t-39.5 -59t-59.5 -39.5t-71.5 -15v0zM731 482q-37 0 -67 -20q-22 49 -67 78.5t-100 29.5q-65 0 -114.5 -40.5t-63.5 -102.5q-18 8 -38 8q-26 0 -47.5 -13t-34.5 -34.5t-13 -47.5q0 -39 28 -66.5t67 -27.5q21 0 39.5 8.5t31.5 23.5q12 -17 28 -30.5
t34.5 -23t39.5 -14.5t43 -5q42 0 79 18t63 49q37 -40 92 -40q51 0 88 36.5t37 88.5q0 25 -10 48.5t-27 40t-40 26.5t-48 10v0zM521 -85q-24 0 -40.5 16.5t-16.5 40.5q0 29 14 65.5t29 58.5l14 21l16 -24q10 -15 25.5 -53.5t15.5 -67.5q0 -24 -16.5 -40.5t-40.5 -16.5z
M271 -18q-15 0 -26 10.5t-11 26.5q0 11 3.5 25t9 25.5t11 21t9.5 15.5l4 5q37 -51 37 -92q0 -16 -11 -26.5t-26 -10.5zM771 -18q-15 0 -26 10.5t-11 26.5q0 41 37 92q37 -51 37 -92q0 -16 -10.5 -26.5t-26.5 -10.5zM386 -38q-16 0 -26.5 10.5t-10.5 25.5q0 9 2 18.5t5 18.5
t7 17t8 15t7.5 12t5.5 8l2 3q1 -1 2 -3t5 -8t7.5 -12t8 -15t7.5 -17.5t5 -18t2 -18.5q0 -15 -11 -25.5t-26 -10.5zM656 -38q-15 0 -26 10.5t-11 25.5q0 42 37 92q2 -2 4.5 -5.5t9 -14.5t11 -21.5t8.5 -24.5t4 -26q0 -10 -5 -18t-13.5 -13t-18.5 -5z" />
    <glyph glyph-name="uniE61D" unicode="&#xe61d;" 
d="M512 744q-90 0 -172.5 -35t-142 -94.5t-94.5 -142t-35 -172.5t35 -172.5t94.5 -142t142 -94.5t173 -35t172.5 35t141.5 94.5t95 142t35.5 172.5q0 60 -16 118t-44.5 106.5t-69.5 89.5t-90 69.5t-106.5 44.5t-118.5 16zM657 144l-13 -13q-8 -8 -19.5 -8.5t-20.5 7.5
l-149 128q-8 8 -14 21.5t-5 24.5l15 246q1 11 9.5 19.5t20.5 8.5h18q11 0 19.5 -8.5t9.5 -19.5l13 -201q1 -28 20 -49l97 -116q5 -5 7 -12.5t0 -15t-8 -12.5z" />
    <glyph glyph-name="uniE61E" unicode="&#xe61e;" 
d="M237 25q0 13 -6 23.5t-17 16.5t-23 6h-124q-20 0 -33.5 -13.5t-13.5 -32.5t13.5 -33t33.5 -14h124q19 0 32.5 14t13.5 33zM20 288q0 -19 13.5 -32.5t33.5 -13.5h124q12 0 23 6t17 16.5t6 23.5q0 19 -13.5 33t-32.5 14h-124q-20 0 -33.5 -14t-13.5 -33zM66 505h125
q19 0 32.5 13.5t13.5 32.5t-13.5 33t-32.5 14h-125q-19 0 -32.5 -14t-13.5 -33q0 -5 1 -9.5t2.5 -8.5t4 -8t6 -7t7 -5.5t8 -4t9 -2.5t8.5 -1zM928 737h-768q-13 0 -24 -6t-17 -17t-6 -23v-47h78q38 0 65.5 -27t27.5 -65.5t-27.5 -66t-65.5 -27.5h-78v-77h78q38 0 65.5 -27
t27.5 -65.5t-27.5 -66t-65.5 -27.5h-78v-77h78q38 0 65.5 -27.5t27.5 -66t-27.5 -65.5t-65.5 -27h-78v-46q0 -13 6 -23.5t17 -17t24 -6.5h768q26 0 45 13.5t19 33.5v805q0 19 -19 32.5t-45 13.5zM381 226q-3 45 4 58q2 -3 9 0.5t11 3.5q13 0 32.5 -1t46.5 -3q52 -3 79 0
q2 0 5 -6v-52q-3 -6 -5 -6q-22 -4 -61 0q-27 3 -40 3q-7 0 -16 -1t-20 -2q-25 -7 -36 -4h-7q-2 2 -2.5 4.5t0.5 5.5zM385 388q2 -3 9 0q4 2 6.5 2.5t4.5 0.5q24 0 77 -3q50 -3 77 0q4 -2 6.5 -13t2.5 -32v-10q0 -16 -77 -10q-11 0 -13 4h-25q-7 0 -15.5 -2t-18.5 -5h-29h-7
q-2 1 -2.5 2.5t-0.5 3.5t1 4q-1 14 -1 25t1.5 19.5t3.5 13.5zM568 145q-3 -5 -3.5 -8t0.5 -5q-2 -6 -2 -55q0 -10 0.5 -23t1.5 -29q2 -16 2.5 -27.5t0.5 -17.5q-3 -10 -12 -17h-6q-25 0 -30 10q-11 1 -22 1h-22q-11 0 -22 -1t-21 -3q-8 -2 -23 -7q-11 2 -17 7.5t-6 15.5v29
q5 36 5 55q0 26 -2 39q0 8 -0.5 16.5t-2.5 16.5q-1 1 -2 3t-1.5 5.5t-0.5 7.5q2 23 20 29q4 -1 7 -1.5t5.5 -1.5t4.5 -2t4 -1h38h67q4 1 8 3t8 3q7 -3 12 -7.5t8 -10t5 -11.5q0 -3 -0.5 -6.5t-1.5 -6.5zM575 453v-16q0 -13 -97 -10q-19 3 -21 3h-9q-4 0 -9 -0.5t-10.5 -1
t-11.5 -1.5q-25 -6 -39 -3q-2 -2 -4 0l-2 3q-4 4 -3 10q-1 22 0.5 37.5t4.5 23.5q2 -3 9 0q3 2 6 3t5 1q23 0 34 -4h25q-5 20 -2 42q-9 4 -7 26q-2 30 20 26q4 0 14 -3q6 -3 13 0q11 -3 14 -26q0 -9 -4.5 -28.5t-2.5 -26.5q-5 -6 -2 -10h67q14 -3 12 -45zM867 44
q-11 -68 -33 -77h-20q-11 0 -25.5 0.5t-31 1t-36.5 1.5h-113q-13 6 -18 26q-2 10 0 32q3 23 3 36v58q2 27 2 85q0 22 -5 42v7l-2 8v6v5q2 22 32 32q3 -1 5.5 -2t6 -2t6.5 -2h133v142h-113q-11 0 -61 -9q-7 3 -7 12q-2 4 0 13q3 17 3 26q-2 20 4 29t18 7q13 0 20 -3h34h124
q2 1 4 1.5t5 1t7 0.5q25 -6 29 -29q0 -3 -1.5 -7t-5.5 -9q-1 -2 -1.5 -3.5t-0.5 -3.5q0 -3 -0.5 -14.5t-1 -31t-0.5 -47.5v-62q0 -27 4 -59q0 -16 -13 -22h-11q-2 -2 -3.5 -2.5t-3.5 -1t-5 -0.5q-4 4 -6 4h-48h-90h-4v-13v-153q0 -39 101 -35q9 3 11.5 3t6 -1t9.5 -2
q27 -4 50 6t42 32v-26zM442 90v-68h72v100h-72v-32z" />
    <glyph glyph-name="uniE61F" unicode="&#xe61f;" 
d="M1015 179q-3 4 -6.5 7t-7.5 5t-8.5 2.5t-9 -0.5t-8.5 -3l-91 -52q28 76 28 158q0 23 -2 45.5t-6.5 44.5t-11.5 43.5t-15 42.5q-18 40 -42 76.5t-55.5 67.5t-67.5 55.5t-77 41.5q-84 36 -176 36t-176 -36q-41 -17 -77 -41.5t-68 -55.5q-62 -63 -97 -144
q-35 -84 -35 -176.5t35 -176.5q35 -81 97.5 -144t144.5 -97q84 -36 176 -36q104 0 197 45q11 6 15 17t-1.5 22t-16.5 15t-22 -1q-41 -20 -84 -29.5t-88 -9.5q-107 0 -198 53t-144 143.5t-53 198t53 198.5t144 144t198 53t198 -53t144 -144t53 -198q0 -82 -32 -156l-36 122
q-3 12 -13.5 17.5t-22.5 2.5q-8 -2 -13 -8t-7 -13t0 -15l56 -190q6 -18 24 -21q7 -1 14 1.5t12 7.5q2 1 3.5 1.5t3.5 1.5l161 92q10 6 13.5 17.5t-2.5 22.5zM591 321q12 0 20.5 8.5t8.5 20.5t-8.5 20.5t-20.5 8.5h-103v17l120 100q9 8 10 20t-7 21q-5 6 -12 9t-14.5 1.5
t-14.5 -6.5l-113 -95l-113 95q-9 8 -21 6.5t-20 -10.5t-7 -21t11 -20l123 -103v-14h-103q-8 0 -14.5 -4t-10.5 -10.5t-4 -14.5t4 -15t10.5 -10.5t14.5 -3.5h103v-67h-103q-12 0 -20.5 -8.5t-8.5 -21.5q0 -7 4 -14t10.5 -11t14.5 -4h103v-140q0 -8 4 -14.5t10.5 -10.5
t14.5 -4q12 0 20.5 8.5t8.5 20.5v140h103q12 0 20.5 8.5t8.5 20.5q0 8 -4 15t-10.5 11t-14.5 4h-103v67h103z" />
    <glyph glyph-name="uniE620" unicode="&#xe620;" 
d="M128 587h768q18 0 30.5 -12.5t12.5 -30.5t-12.5 -30.5t-30.5 -12.5h-768q-18 0 -30.5 12.5t-12.5 30.5t12.5 30.5t30.5 12.5zM128 75h768q18 0 30.5 -12.5t12.5 -30.5t-12.5 -30.5t-30.5 -12.5h-768q-18 0 -30.5 12.5t-12.5 30.5t12.5 30.5t30.5 12.5zM128 331h768
q18 0 30.5 -12.5t12.5 -30.5t-12.5 -30.5t-30.5 -12.5h-768q-18 0 -30.5 12.5t-12.5 30.5t12.5 30.5t30.5 12.5z" />
    <glyph glyph-name="uniE621" unicode="&#xe621;" 
d="M812 -12h-270v271h270v-271zM558 4h238v238h-238v-238zM483 -12h-271v271h271v-271zM229 4h237v238h-237v-238zM812 317h-270v271h270v-271zM558 334h238v238h-238v-238zM483 317h-271v271h271v-271zM229 334h237v238h-237v-238z" />
    <glyph glyph-name="uniE622" unicode="&#xe622;" 
d="M889 281q-4 -11 -13 -17.5t-20 -6.5h-86v-274q0 -15 -10.5 -25.5t-25.5 -10.5h-151q-15 0 -25.5 10.5t-10.5 25.5v133h-70v-133q0 -15 -10.5 -25.5t-25.5 -10.5h-151q-15 0 -25.5 10.5t-10.5 25.5v274h-86q-25 0 -33.5 23.5t10.5 39.5l343 300q10 9 23.5 9t24.5 -9
l51 -45q1 4 2.5 7t3.5 6t4 5.5t5 4t6.5 3t7 2.5t6.5 1h89q15 0 25.5 -10.5t10.5 -25.5v-132l132 -116q9 -7 11.5 -18t-1.5 -21z" />
    <glyph glyph-name="uniE623" unicode="&#xe623;" 
d="M323 331h378v-21h-378v21zM323 212h378v-21h-378v21zM323 94h184v-22h-184v22zM782 441v0l-171 171h-369v-648h540v477zM611 581l142 -142h-142v142zM760 -14h-496v604h326v-173h170v-431z" />
    <glyph glyph-name="uniE624" unicode="&#xe624;" 
d="M702 737h-380q-16 0 -30 -6t-24 -16t-16 -24t-6 -30v-745q0 -31 22 -53t54 -22h380q15 0 29 6t24 16t16 24t6 29v745q0 21 -10 38t-27.5 27.5t-37.5 10.5zM436 676h151q8 0 13.5 -5.5t5.5 -12.5q0 -6 -2.5 -10t-7 -6.5t-9.5 -2.5h-151q-8 0 -13.5 5.5t-5.5 13t6 13
t13 5.5zM511.5 -99q-13.5 0 -22.5 9.5t-9 22.5q0 9 4 16.5t11.5 11.5t16.5 4q13 0 22.5 -9.5t9.5 -22.5t-9.5 -22.5t-23 -9.5zM725 18h-427v561h427v-561z" />
    <glyph glyph-name="uniE625" unicode="&#xe625;" 
d="M890 481q-17 18 -39 5q-3 -3 -6 -5l-328 -331l-332 329q-6 7 -14.5 9t-16.5 -0.5t-14 -8.5q-10 -9 -10 -22.5t10 -22.5l353 -350h1l1 -1v-1q10 -9 23 -9t22 9l350 354q3 2 5 5.5t3 6.5t1.5 6.5t0 7.5t-1.5 7t-3 6t-5 6z" />
    <glyph glyph-name="uniE626" unicode="&#xe626;" 
d="M887 195l-353 350l-1 1h-1v1q-18 17 -39 4q-4 -2 -6 -5l-350 -353q-5 -5 -7.5 -11t-2.5 -12t2.5 -12t7.5 -10q3 -3 6.5 -5t7.5 -3t8 -1q14 0 23 9l328 331l332 -330q10 -9 23 -9q6 0 12 2.5t11 7.5q3 3 5.5 8t3 9.5t0 9.5t-3 9.5t-6.5 8.5z" />
    <glyph glyph-name="uniE627" unicode="&#xe627;" 
d="M886 -25l-168 169q74 91 74 209q0 34 -7 66.5t-19.5 62t-30.5 56.5t-40 49t-49 40t-56.5 30.5t-62 19.5t-66.5 7q-90 0 -166.5 -44.5t-120.5 -120.5t-44 -166t44 -166.5t120.5 -120.5t166.5 -44q117 0 208 74l169 -169q10 -10 24 -10t24.5 10t10.5 24t-11 24zM199 353
q0 42 13.5 82t37.5 72t56 56.5t72 37.5t83 13q108 0 184.5 -76.5t76.5 -184.5q0 -103 -70 -178l-2 -2l-11 -12q-76 -70 -178 -70q-109 0 -185.5 76.5t-76.5 185.5z" />
    <glyph glyph-name="uniE628" unicode="&#xe628;" 
d="M573 620h-302v120h61q0 25 17.5 42.5t42.5 17.5h60q25 0 42.5 -17.5t17.5 -42.5h61v-120zM422 674q16 0 27 11t11 26q0 17 -11 27.5t-27 10.5t-26.5 -10.5t-10.5 -27.5q0 -15 10.5 -26t26.5 -11zM664 200q44 0 82.5 -17t67 -46t45.5 -67.5t17 -81.5q0 -44 -17 -82.5
t-45.5 -67.5t-67 -45.5t-82.5 -16.5t-82.5 16.5t-67.5 45.5t-46 67.5t-17 82.5q0 43 17 81.5t46 67.5t67.5 46t82.5 17zM795 6q6 7 11 16.5t-3 17.5q-2 2 -9 9.5t-9 8.5q-10 7 -18.5 2t-17.5 -13q-22 -22 -44 -43.5t-41 -40.5q-7 -7 -15 -8.5t-13 5.5q-3 3 -9 9.5t-13 14.5
t-13 15t-9 10q-6 5 -13 6.5t-15 -5.5q-1 -1 -5 -4.5t-7.5 -7.5t-7.5 -7.5t-5 -4.5q-14 -15 4 -36q6 -6 15.5 -16.5t20 -22t21 -22.5t18.5 -18t21.5 -6.5t19.5 7.5q14 13 31 30l36 36l37 37q18 18 32 31zM389 17q0 -7 -0.5 -13.5t-0.5 -14.5q0 -43 12.5 -82t35.5 -72h-281
q-19 0 -40.5 10.5t-40.5 28t-31.5 39.5t-12.5 46v596q0 21 10 42.5t25 40t35.5 30.5t42.5 12h68v-121h421v121h60q22 0 44 -10t39 -26t28 -39.5t11 -49.5v-341q-33 22 -71.5 35t-82.5 13h-6q17 6 28 21.5t11 34.5q0 25 -18 42.5t-43 17.5h-421q-25 0 -42.5 -17.5
t-17.5 -42.5t17.5 -42.5t42.5 -17.5h404q-58 -10 -105 -41.5t-78 -79.5h-221q-25 0 -42.5 -17t-17.5 -42.5t17.5 -43t42.5 -17.5h178z" />
    <glyph glyph-name="uniE629" unicode="&#xe629;" 
d="M794 527h-80l1 2q22 48 -2 89q-14 25 -39.5 37.5t-56.5 10.5t-59 -19q-31 -18 -49 -50l-1 1h-1h-3h-3h-1h-1l-1 -1h-1q-8 15 -20.5 28t-28.5 22q-17 10 -35.5 15t-36 4t-33 -6.5t-28.5 -16t-22 -25.5q-24 -41 -1 -90l7 -1h-86q-10 0 -19.5 -4t-16.5 -11t-11 -16.5
t-4 -19.5v-17q0 -22 15 -37t36 -15h17v-341q0 -21 15 -36t37 -15h443q22 0 37 15t15 36v341h17q8 0 16 3t14 7.5t11 11t7.5 14t2.5 16.5v17q0 21 -15 36t-36 15zM575 618q21 11 42.5 13t39 -6t27.5 -24q4 -8 5.5 -17.5t0 -19t-5.5 -19t-10 -18.5h-136q-2 4 -3.5 8.5t-2.5 10
t-2 9.5q6 40 45 63zM323 601q14 25 45.5 30t62.5 -13q40 -23 46 -63q-2 -4 -4 -14t-4 -14h-136q-29 41 -10 74zM486 237h-221v170h221v-170zM299 49q-10 0 -17.5 4.5t-12 12.5t-4.5 17v120h221v-154h-187zM742 83q0 -9 -4.5 -17t-12 -12.5t-17.5 -4.5h-187v154h221v-120z
M742 237h-221v170h221v-170zM811 459q0 -5 -2.5 -9t-6.5 -6t-8 -2h-581q-4 0 -8 2t-6.5 6t-2.5 9v17q0 7 5 12t12 5h581q7 0 12 -5t5 -12v-17z" />
    <glyph glyph-name="uniE62A" unicode="&#xe62a;" 
d="M863 383h75v-214h-75v214zM83 383h76v-214h-76v214zM250 628v76q-69 -1 -118 -50t-49 -118h76q0 38 26.5 65t64.5 27zM404 -76h213v-76h-213v76zM771 -76v-76q45 0 83.5 22.5t61 61t22.5 83.5h-75q-1 -25 -13 -46t-33 -33t-46 -12zM159 15h-76q0 -69 49 -118t118 -49v76
q-38 0 -64.5 26.5t-26.5 64.5zM863 536h75q0 69 -49 118t-118 50v-76q38 0 64.5 -27t27.5 -65zM404 704h213v-76h-213v76zM768 418h-300v-261h137q4 9 10 16t14 12.5t17.5 8.5t19.5 3q20 0 37 -11t25 -29h40v261zM380 197q11 0 21.5 -3.5t19 -10t14.5 -14.5v176h-114
l-68 -76v-112h66q8 18 24.5 29t36.5 11zM295 262l38 45h61v-81h-99v36zM380 174q-12 0 -22.5 -6t-16.5 -16.5t-6 -22.5q0 -19 13.5 -32t32 -13t32 13t13.5 32q0 4 -1 8t-2.5 7.5t-3.5 7t-4.5 6.5t-5 5.5t-6 4.5t-7 3.5t-7.5 2t-9 0.5zM666.5 174q-18.5 0 -32 -13t-13.5 -32
t13.5 -32t31.5 -13q12 0 22.5 6t16.5 16.5t6 22.5q0 19 -13 32t-31.5 13z" />
    <glyph glyph-name="uniE62B" unicode="&#xe62b;" 
d="M749 594q-22 -17 -47 -31q78 -49 124 -130.5t46 -176.5q0 -98 -48.5 -181.5t-131.5 -132t-181.5 -48.5t-182 48.5t-132 132t-48.5 181.5q0 95 46.5 176.5t124.5 130.5q-25 14 -47 31q-81 -57 -128.5 -146t-47.5 -192q0 -112 55.5 -207.5t151 -151t208 -55.5t208 55.5
t150.5 151t55 207.5q0 103 -47 192t-128 146zM505 344q17 0 29 12t12 29v309q0 11 -5.5 20.5t-15 15t-20.5 5.5q-17 0 -28.5 -12t-11.5 -29v-309q0 -11 5.5 -20.5t14.5 -15t20 -5.5z" />
    <glyph glyph-name="uniE62C" unicode="&#xe62c;" 
d="M537.5 267q-27.5 0 -47 -19.5t-19.5 -46.5q0 -13 5 -25t13.5 -21t19.5 -14v-73q0 -8 4 -14.5t10.5 -10.5t14 -4t14 4t10.5 10.5t4 14.5v73q17 8 27.5 24t10.5 36q0 27 -19.5 46.5t-47 19.5zM813 401h-570q-8 0 -15.5 -2.5t-14 -6t-11.5 -8.5t-8.5 -11.5t-6 -14
t-2.5 -14.5v-381q0 -24 17 -40.5t41 -16.5h570q16 0 29 7.5t20.5 20.5t7.5 29v381q0 23 -16.5 40t-40.5 17zM813 1q0 -24 -7 -31t-31 -7h-494q-17 0 -24.5 3t-10.5 11t-3 24v304q0 24 7 31.5t31 7.5h494q24 0 31 -7.5t7 -31.5v-304zM258 429q12 0 20.5 8.5t8.5 20.5
q20 82 87 136t154 54q34 0 66 -9t59 -25t50 -39t39 -51q7 -17 26 -17q8 0 14.5 4t10.5 10.5t4 14.5q0 9 -6 17q-19 34 -47 62t-61.5 48t-73 31t-81.5 11q-110 0 -193.5 -67.5t-104.5 -172.5l-1 -2v-2v-3q0 -12 8.5 -20.5t20.5 -8.5z" />
    <glyph glyph-name="uniE62D" unicode="&#xe62d;" 
d="M512 -48q-21 0 -42 2t-42 5l-197 -119v199q-78 55 -123 135t-45 171q0 107 60 197.5t163.5 143t225.5 52.5t225.5 -52.5t163.5 -143t60 -197.5q0 -53 -16 -104t-45 -94t-70.5 -79.5t-90.5 -62t-107.5 -39.5t-119.5 -14zM512 682q-107 0 -197.5 -45t-143 -122.5
t-52.5 -169.5q0 -56 21 -108.5t58.5 -94.5t88.5 -73l-2 -130l132 80q48 -11 95 -11q107 0 197.5 45t143 123t52.5 169q0 35 -8 68t-23 63t-36.5 57.5t-47.5 50t-58 41t-67 31t-74 19.5t-79 7zM736.5 289q-23.5 0 -40 16.5t-16.5 39.5t16.5 39.5t40.5 16.5q15 0 28 -7.5
t20.5 -20.5t7.5 -28q0 -23 -16.5 -39.5t-40 -16.5zM512 289q-23 0 -39.5 16.5t-16.5 39.5t16.5 39.5t39.5 16.5t39.5 -16.5t16.5 -39.5t-16.5 -39.5t-39.5 -16.5zM287 289q-23 0 -39.5 16.5t-16.5 39.5t16.5 39.5t40 16.5t40 -16.5t16.5 -39.5q0 -15 -7.5 -28t-20.5 -20.5
t-29 -7.5z" />
    <glyph glyph-name="uniE62E" unicode="&#xe62e;" 
d="M719 11q-15 -66 -68 -109.5t-122.5 -43.5t-123 43.5t-68.5 109.5h-201v65q109 59 109 196v-1v-2v-1v-2v-1v-1v-1v-1v-2v-1v-1v-1v-1v-1v-1v-1v-1v-1v0v-1v0v-1v0v0v0v0v0v0v1v0v1v0v1v1v0v1v1v1v1v1v1v1v1v1v1v1v1v1v1v1v1v1v1v1v1v1v1v1v1v1v1v1v1v1v1v1v1v1v1v1v1v1v1
v1v2v1v1v1v1v1v1v1v2v1v1v1v1v2v1v1v1v2v1v1v1v2v1v1v2v1v1v2v1v1v2v1v1v2v1v1v2v1v2v1v1v2v1v2v1v2v1v2v1v2v1v2v1v2v1v2v1v2v1v2v1v2v2v1v2v1v2v2v1v2v1v2v2v1v2v2v1v2v2v1v2v2v1v2v2v1v2v2v2v1v2v2v2v1v2v2v2v1v2v2v2v2v1v2v2v2v2v2v1v2v2v9q0 117 83 200t200.5 83
t200.5 -83t83 -200v-197q-1 -2 -1 -7t0.5 -19.5t3.5 -29t10.5 -34.5t19 -37.5t31 -36t45.5 -32.5v-65h-202zM528 -76q42 0 75.5 24t47.5 63h-246q10 -25 27.5 -45t42.5 -31t53 -11zM746 251v218q0 90 -64 154t-154 64t-154 -64t-64 -154v-218q0 -107 -60 -168l-8 -7h578
q-20 19 -35.5 44t-22.5 47t-11 41.5t-4 30.5z" />
    <glyph glyph-name="uniE62F" unicode="&#xe62f;" 
d="M861 148l-92 130q-24 192 -51 266q-13 36 -34 64t-42 42.5t-40 24t-31 12.5l-12 3q16 23 16 38q0 9 -7.5 14.5t-15.5 5.5h-76q-9 0 -16.5 -5.5t-7.5 -14.5q0 -3 1 -7t3 -7l2 -8l4 -6t3.5 -5.5t2.5 -3.5l1 -1q-5 -1 -13 -3t-30 -12t-41.5 -24.5t-41 -42.5t-34.5 -64
q-7 -21 -15 -56t-14 -70t-11 -67.5t-7 -52.5l-3 -20l-93 -130q0 -1 -4.5 0t-11 -1.5t-13 -5.5t-11.5 -11.5t-5 -20.5q0 -14 12 -27t40.5 -26t72 -24t112 -19.5t156.5 -13.5q87 5 155.5 13.5t112 19.5t72.5 24t40.5 26t11.5 27q0 12 -4.5 20.5t-11.5 12t-13.5 5t-10.5 1.5h-5
zM439 -68q1 -4 2.5 -9.5t8 -19.5t14.5 -24.5t21 -19t29 -8.5q46 0 70 68q3 7 4 13q-57 -5 -74 -5z" />
    <glyph glyph-name="uniE630" unicode="&#xe630;" horiz-adv-x="1000" 
d="M515 753q-89 0 -170 -34.5t-139.5 -93t-93 -139.5t-34.5 -170t34.5 -169.5t93 -139t139.5 -93.5t170 -35t170 35t139.5 93.5t93 139t34.5 169.5q0 168 -111 292q-109 121 -268 142q-29 3 -58 3zM515 -56q-76 0 -145 29.5t-118.5 79.5t-79 119t-29.5 144q0 102 49.5 187.5
t135.5 135.5t187 50t187 -50t136 -135.5t50 -187t-50 -187.5t-136 -135.5t-187 -49.5zM612 429q78 -78 125 -139l-36 -25l-32 40q-9 0 -18 -0.5t-18 -0.5t-17.5 -0.5t-17.5 -0.5v-150q0 -23 6 -29q7 -9 27 -9h48q33 0 37 25q4 21 6 66q18 -7 44 -15q-3 -35 -8 -64
q-8 -47 -71 -47h-63q-38 0 -52 16q-15 14 -15 50v155q-47 -1 -90 -3q-3 -82 -32 -129q-40 -64 -145 -100q-10 16 -25 37q100 32 135 88q25 39 27 102q-33 -1 -57 -3q-14 -1 -40 -8l-21 44q27 6 47 24q50 47 94 102h-176v38h238q-17 31 -32 52l35 21q10 -13 19.5 -27.5
t19.5 -31.5l-27 -14h232v-38h-254q-49 -57 -115 -121q157 3 250 5q-28 35 -58 68z" />
    <glyph glyph-name="uniE631" unicode="&#xe631;" 
d="M779 236v14q-10 8 -20 32t-127 164l-21 26v18q38 28 76 70q60 66 24 133q-17 31 -48.5 41.5t-61.5 2.5q-7 -2 -14.5 -5.5t-13.5 -7.5t-11.5 -8.5t-9.5 -8.5l-7 -7q-3 -3 -4 -5l-2 -2q0 1 -1.5 3t-7 7.5t-11.5 10t-16 10.5t-21.5 10t-27 6.5t-33 1.5t-32 -4.5t-24 -9
t-17.5 -12t-12.5 -12.5t-7 -11t-3.5 -8l-1 -4q-1 1 -1.5 2t-3.5 4l-7 7l-8 8l-10 8q-5 5 -12 10t-14 9q-26 16 -57.5 12t-56.5 -26q-15 -13 -19 -32.5t-1.5 -33.5t8.5 -40q4 -13 17.5 -32.5t28.5 -34.5l28 -32l16 -16q3 -5 3.5 -13.5t-0.5 -14.5l-1 -6q-1 -1 -3 -3.5
t-8 -9.5l-12 -14q-6 -7 -15 -18t-17.5 -21t-18.5 -22t-18.5 -22.5t-17.5 -21.5t-16 -20q-19 -25 -40.5 -68.5t-33.5 -73.5t-12 -32v-189q44 -71 76 -70h2l350 -2v-30h353v32h215v361h-239zM724 184h247v-21h-247v21zM598 592q4 9 4.5 17.5t-2.5 14t-6.5 9t-6.5 5.5l-3 1
q4 5 10.5 13t20 20.5t20.5 12.5h6h5q2 0 4.5 -0.5t4 -2t3.5 -4t3.5 -7t2.5 -10.5q2 -8 -1.5 -19t-10 -21t-13.5 -18.5t-12 -13.5l-5 -5l-36 -37q-14 -12 -23 -17q-7 -3 -9 -6.5t-1 -5.5t0.5 -3t-6.5 -1h-40v16q75 27 91 62zM433 689q30 1 55 -21t41 -51q14 -27 -47 -72
l-4 -3l-16 -2v74h-45l-3 -72l-1 -2q-3 -1 -12 2q-5 2 -12.5 8.5t-15 15t-14.5 18t-11 18.5t-3 14q3 17 30 44t58 29zM234 584q-6 5 -14 13.5t-20 29.5t-9 34q2 7 4 11.5t3.5 7.5t4.5 4t5 1h6h7q7 0 19.5 -11.5t21.5 -22.5l9 -12l-1 -1q-1 0 -4 -2t-5 -4.5t-4.5 -6.5t-3 -8.5
t0.5 -11t4 -13.5q7 -16 29.5 -31t41.5 -23l19 -8v-16h-40q-5 0 -6 1t0.5 3t-0.5 5.5t-10 6.5q-9 5 -24.5 19.5t-22.5 22t-11 12.5zM455 75v-155h-288q-48 22 -66 51q-7 10 -9.5 29t-1.5 41t4 43t7 39q3 13 11.5 30.5t21.5 37.5t24.5 37t26.5 38.5t22 31.5q15 22 42 54.5
t47 54.5l20 22q22 -16 22 -27q0 -5 -5 -14t-9 -16l-5 -7q-24 -35 -42 -67l-70 -109q-13 -44 17 -42q26 2 50 26q2 1 3 2q9 10 17.5 23.5t12.5 22.5l4 8q1 1 2.5 3.5t7 10.5t11.5 17t14.5 23t17.5 29q15 23 24 45.5t11 33.5l2 11h17q2 -106 2 -114q0 -4 10.5 -4.5t21.5 3.5
t13 11q3 11 1.5 34t-3.5 47l-3 23h27l21 -37l35 -48q1 -1 2.5 -3t6.5 -7.5t10.5 -11t12.5 -13t13.5 -14.5t13.5 -14l12 -12q5 -5 9.5 -8.5t6.5 -4.5q4 -1 7 1t4 6t2 8.5t1 7.5v3q0 14 -14 27l-6 9q-4 6 -8 13.5t-8.5 16t-8.5 16.5l-7 14l-5 10l-2 4l22 3q4 -2 14.5 -13
t27.5 -29.5t29 -29.5q15 -13 23.5 -26.5t9.5 -20.5l2 -6h-37v-136l-221 -11v-21zM748 -119h-243v45h243v-45zM748 11h-248v19h248v-19zM966 -76l-160 -11v34h160v-23zM966 14l-157 -11v30h157v-19zM974 107v-13h-184l-2 18h-72l8 19h250v-24zM349 83q16 -4 30 -9.5t21 -14
t7 -26.5q0 -24 -16 -40q-8 -8 -18.5 -12.5t-23.5 -5.5v-40h-17v40q-52 6 -56 61h20q1 -18 9 -27.5t27 -14.5v72q-35 10 -44 23l-2 4q-1 2 -2 3.5t-1.5 3.5t-1.5 3.5t-1 3.5t-0.5 4t-0.5 3v4q0 20 14 36q7 8 17 12t22 6v28h17v-28q50 -6 52 -53h-21q-5 33 -31 33v-69zM332 88
v65q-17 -3 -26 -12.5t-9 -22.5t9 -19q4 -4 10.5 -6.5t15.5 -4.5zM349 -5q35 6 35 36q0 6 -1.5 10.5t-5.5 7.5q-7 7 -28 14v-68z" />
    <glyph glyph-name="uniE632" unicode="&#xe632;" 
d="M702.5 -182q-110.5 0 -189 78t-78.5 189q0 44 13.5 84.5t38.5 73.5t57.5 57.5t73.5 38t85 13.5q110 0 188.5 -78t78.5 -189t-78.5 -189t-189 -78zM703 286q-83 0 -142 -59t-59 -142q0 -23 5.5 -45.5t15 -42.5t23.5 -37.5t31.5 -31t37 -23.5t42 -15t46.5 -5
q83 0 141.5 58.5t58.5 141.5q0 92 -70 152q-57 48 -130 49zM792 18h-138l25 -43q5 -8 -13 -18.5t-23 -2.5l-48 77q-3 7 -4 10l1 1v1v2q1 2 2 4.5t2.5 4.5t3 3.5t4 3t5 2t5.5 0.5h5h5h168q9 0 15.5 -6.5t6.5 -16t-6.5 -16t-15.5 -6.5zM813 125q-1 -7 -7 -12.5t-14 -5.5h-6h-5
h-167q-10 0 -16.5 6.5t-6.5 16.5q0 6 3 11t8 8t12 3h138l-26 44q-2 3 2 8t11 10q19 10 23 2q52 -78 52 -86q0 -1 -0.5 -1.5t-0.5 -1.5v-1v-1zM680 530q6 0 11.5 -3t8.5 -8t3 -11q0 -4 -2 -8.5t-5 -7.5t-7 -4.5t-9 -1.5h-111q-6 0 -11 3t-8 8t-3 11t3 11t8 8t11 3h111z
M235 130h111q10 0 16.5 -6.5t6.5 -16t-6.5 -16t-16.5 -6.5h-111q-6 0 -11 3t-8 8t-3 11q0 10 6.5 16.5t15.5 6.5zM458 375q4 0 8 -2t7 -5t5 -7t2 -8.5t-2 -8.5t-5 -7t-7 -5t-8 -2h-89v-89q0 -9 -6.5 -15.5t-16 -6.5t-16 6.5t-6.5 15.5v89h-89q-6 0 -11 3t-8 8t-3 11
q0 5 1.5 9t4.5 7t7.5 5t8.5 2h89v89h-89q-9 0 -15.5 6.5t-6.5 15.5t6.5 15.5t15.5 6.5h22v45q0 9 6.5 15.5t16.5 6.5q4 0 8 -2t7 -5t5 -7t2 -8v-45h89v45q0 9 6.5 15.5t15.5 6.5q6 0 11 -3t8 -8t3 -11v-45h23q6 0 11 -3t8 -8t3 -11q0 -4 -1 -7.5t-3 -6t-5 -4.5t-6.5 -3
t-6.5 -1h-89v-89h89zM792 642q0 18 -13 31t-32 13h-579q-18 0 -31 -13t-13 -31v-646q0 -12 6 -22.5t16 -16t22 -5.5h253q18 -37 43 -67h-318q-37 0 -63 26t-26 63v690q0 37 26 63t63 26h623q37 0 63 -26t26 -63v-309q-15 9 -32 16.5t-34 12.5v258z" />
    <glyph glyph-name="uniE633" unicode="&#xe633;" 
d="M930 569q-11 36 -26 73t-24 57l-10 19h-716q-1 -3 -3.5 -8t-10 -21t-14 -32.5t-15.5 -40.5t-16 -47q-52 -168 -15 -249q8 -16 19.5 -28.5t26 -21.5t32.5 -13q18 -5 36 -5q41 0 78 24q40 26 74 79q9 15 17.5 31t15.5 32q13 -24 26 -46q26 -44 47 -69q33 -40 60.5 -40
t60.5 40q21 25 47 69q5 8 9.5 16t8.5 15.5t8 14.5q15 -35 33 -63q34 -53 74 -79q37 -24 78 -24q3 0 7 0.5t7.5 0.5t7 1t7 1.5t7.5 1.5q27 7 46.5 23t31.5 40q37 81 -15 249zM897 343q-13 -28 -43 -35q-35 -9 -68 9.5t-62 64.5q-15 23 -27.5 51t-16 39t-5.5 18l-18 66
l-31 -62q-2 -6 -6 -14t-16.5 -31t-24.5 -43q-5 -9 -14 -24q-24 -41 -33 -53t-19.5 -12t-19.5 12t-33 52q-3 5 -4 8l-4 8q-3 5 -6 9q-12 20 -24.5 43t-16.5 31t-6 14l-31 62l-18 -66q-16 -56 -48 -107q-60 -93 -131 -75q-30 7 -43 34q-15 33 -9 93q5 51 26 118q6 21 14.5 44
t14.5 38.5t13 30.5h651q3 -7 6 -14.5t6.5 -16t7.5 -18t7.5 -20t7.5 -21.5t7 -22q21 -67 26 -119q3 -30 1 -53t-10 -39zM869 209h52v-209q0 -58 -40.5 -98.5t-97.5 -40.5h-541q-57 0 -97.5 40.5t-40.5 98.5v209h52v-209q0 -36 25.5 -61t60.5 -25h541q35 0 60.5 25t25.5 61
v209z" />
    <glyph glyph-name="uniE634" unicode="&#xe634;" 
d="M222 592h410q32 0 61 -12t51 -34q46 -47 46 -112v-18h-56v18q0 21 -7.5 39.5t-22.5 32.5q-7 7 -15 12.5t-17 9.5t-19 6t-21 2h-410q-41 0 -71 -28l-1 -2q-5 -4 -9 -9.5t-7.5 -11t-6 -11.5t-4 -12.5t-2.5 -13.5t-1 -14v-292q0 -41 28 -71q1 0 1 -0.5t1 -0.5q30 -30 72 -30
h410q42 0 72 30v0q30 30 30 72v18h56v-18q0 -65 -46 -112l-20 20l20 -20h-1q-46 -46 -111 -46h-410q-32 0 -61 12t-51 34l20 20l-20 -20q-1 1 -1 2q-45 46 -45 110v292q0 65 46 112q1 1 2 1q46 45 110 45v0zM248 433q-11 0 -19 -8.5t-8 -20t8 -19.5t19 -8h333q11 0 19.5 8
t8.5 19.5t-8.5 20t-19.5 8.5h-333zM245 314q-11 0 -19 -8t-8 -19q0 -6 2 -11t5.5 -9t9 -6t10.5 -2h237q11 0 19.5 8t8.5 20q0 7 -4 13.5t-10.5 10t-13.5 3.5h-237zM247 195q-12 0 -20 -8.5t-8 -20t8 -19.5t20 -8h137q12 0 20 8t8 20q0 6 -2 11t-6 8.5t-9 6t-11 2.5h-137z
M629 278l277 199l52 -72l-277 -200zM615 267l51 -72l-104 -20zM615 267z" />
    <glyph glyph-name="uniE635" unicode="&#xe635;" 
d="M897 523h-227v112q0 19 -13.5 32.5t-32.5 13.5h-236q-7 0 -14 -2.5t-12.5 -7t-10 -10t-7 -12.5t-2.5 -14v-112h-226q-20 0 -36.5 -9.5t-26 -26.5t-9.5 -36v-151l7 -6q16 -14 49 -34v-303q0 -30 21 -50.5t51 -20.5h668q30 0 51.5 20.5t21.5 50.5v309q24 15 47 30l9 6v149
q0 30 -21 51t-51 21zM381 635q0 7 7 7h236q8 0 8 -7v-112h-251v112zM874 -43q0 -7 -2.5 -13t-7 -10t-11 -7t-13.5 -3h-668q-14 0 -24 9.5t-10 23.5v281q132 -70 280 -87v-24q0 -12 6 -22.5t16 -16.5t23 -6h87q18 0 31.5 13.5t13.5 31.5v26q142 19 279 92v-288zM456 127v96
q0 6 7 6h87q5 -1 6 -6v-96q-1 -5 -6 -6h-87q-7 0 -7 6zM931 323q-82 -54 -166.5 -86.5t-169.5 -44.5v31q0 18 -13.5 31.5t-31.5 13.5h-87q-13 0 -23 -6t-16 -16.5t-6 -22.5v-33q-63 7 -122.5 24.5t-103.5 39.5t-68.5 37t-41.5 27v133q0 9 4.5 16.5t12.5 12.5t17 5h781
q7 0 13 -3t10.5 -7.5t7.5 -10.5t3 -13v-128z" />
    <glyph glyph-name="uniE636" unicode="&#xe636;" 
d="M858 297q-2 6 -8.5 21t-15 32.5t-13.5 26.5q-11 17 -33 43t-36 36q-5 4 -10.5 6.5t-12 4t-12.5 1.5h-78q-11 0 -20 -3.5t-17 -9.5q-28 -21 -68 -116l-4 -11l-4 -13q-2 -6 -5 -11t-6 -5q-4 -1 -8 7.5t-7.5 21.5t-5.5 16q-13 31 -25.5 55.5t-24 41t-21.5 23.5q-8 6 -17 9
t-19 3h-78q-20 0 -36 -12q-36 -27 -77 -125q-24 -59 -30 -81q-2 -11 -3 -18.5t-0.5 -11.5t2.5 -7t4 -4t6 -2v-13q-2 -1 -3 -2l-4 -2q-1 -1 -2 -3t-1.5 -3.5t-0.5 -3.5v-139q0 -6 4.5 -10.5t10.5 -4.5h4q6 0 10 4.5t4 10.5v139q0 5 -2.5 8.5t-7.5 5.5v8q15 -4 35 30
q3 5 11.5 27t16.5 37.5t14 13.5q4 -1 5.5 -13t1.5 -27.5t-0.5 -31.5t-1.5 -26l-1 -11q-3 -50 -3 -63q0 -11 -6.5 -74.5t-4.5 -76.5q1 -9 2.5 -15.5t3.5 -10.5t3.5 -6.5t4.5 -3.5t4 -1.5t6 0.5h4q4 0 7.5 -0.5t7 1.5t6.5 5.5t5.5 12t4.5 21.5q15 95 15 113q0 4 4 49
q0 3 1 7.5t7 12.5t16 8q7 0 11.5 -2.5t7 -6t3.5 -7t1 -6.5l1 -2q2 -27 2 -52q0 -9 -1.5 -39t-1.5 -44.5t1 -33.5q1 -9 2.5 -15.5t3.5 -10.5t3.5 -6.5t4.5 -3.5t4 -1.5t6 0.5h4q4 0 7.5 -0.5t7 1.5t6.5 5.5t5.5 12t4.5 21.5q10 69 11 113q2 71 -1 97q-1 6 -4 25t-5 33
t-3 30.5t3 16.5q8 9 21 -20q4 -9 11 -28t10 -24q1 -1 4 -7t4.5 -8t5 -5.5t7.5 -5t9.5 -1.5t11 2.5t8.5 5.5l8 8q3 3 4 5l2 3l30 54q17 26 23 24q6 -6 5.5 -32t-3.5 -55l-3 -28q-3 -50 -3 -63q0 -11 -6.5 -74.5t-4.5 -77.5q1 -8 2 -14.5t3.5 -10.5t3.5 -6.5t4.5 -3.5
t4.5 -1.5t5 -0.5h5q4 1 7.5 0.5t6.5 1.5t6 5.5t5.5 12t4.5 21.5q1 3 4 22l5 33q2 13 4 30.5t2 27.5q1 4 4 49q0 3 1 7.5t7.5 12.5t16.5 8q6 0 11 -2.5t7 -6t3.5 -7t1.5 -6.5v-2q3 -27 3 -52q-1 -9 -2 -39t-1.5 -44.5t1.5 -34.5q1 -8 2 -14.5t3.5 -10.5t3.5 -6.5t4.5 -3.5
t4.5 -1.5t5 -0.5h5q4 1 7.5 0.5t6.5 1.5t6 5.5t5.5 12t4.5 21.5q4 22 7.5 57.5t4.5 55.5v25q0 16 -0.5 39t-1.5 33q0 5 -2.5 20t-4.5 30t-3.5 30.5t-1.5 26t3 12.5q3 4 12 -5.5t16.5 -22.5t8.5 -18q1 -9 1.5 -11.5t-1 -13t-1.5 -13.5q-1 -3 -2 -9t-1 -9.5t1 -8.5t4.5 -8
t10.5 -5q8 -1 15.5 6.5t11.5 15.5l3 9v1q1 1 2 4t2 5.5t2 5.5l2 8l2 6t2 5q4 20 -2 36zM682 570zM604 570q0 32 22.5 55t55 23t55.5 -23t23 -55t-23 -55t-55.5 -23t-55 23t-22.5 55zM345 569zM266 569q0 33 23 56t56 23t56 -23t23 -56t-23 -56t-56 -23t-56 23t-23 56z" />
    <glyph glyph-name="uniE637" unicode="&#xe637;" 
d="M384 624v-3v-155v-2h-254q-2 1 -2 2v155l2 3h254zM385 656h-255q-14 0 -24 -10.5t-10 -24.5v-155q0 -14 10 -24t24 -10h255q6 0 12 2.5t10 7.5t6.5 11t2.5 13v155q0 14 -9 24.5t-23 10.5h1zM800 144q9 0 16.5 -4t11.5 -11.5t4 -16.5q0 -4 -1 -8t-3 -7.5t-5 -6.5t-6.5 -5
t-7.5 -3.5t-9 -1.5q-13 0 -22.5 9.5t-9.5 22.5t9.5 22.5t22.5 9.5zM800 176q-26 0 -45 -18.5t-19 -45t19 -45.5t45.5 -19t45 19t18.5 45.5t-18.5 45t-45.5 18.5zM273 144q9 0 16 -4t11.5 -11.5t4.5 -16t-4.5 -16t-11.5 -12t-16 -4.5t-16.5 4.5t-11.5 12t-4 16t4 16
t11.5 11.5t16.5 4zM273 176q-27 0 -45.5 -18.5t-18.5 -45t18.5 -45.5t45 -19t45.5 19t19 45q0 18 -8.5 32.5t-23.5 23t-32 8.5zM816 496v48q7 31 0 52.5t-27.5 32.5t-52.5 11q-13 0 -40 -4.5t-57.5 -12t-46.5 -15.5q-23 -12 -26 -24.5t10 -23.5v0q4 3 8.5 6.5t10 6.5t12.5 6
t15 5q-1 0 18.5 5.5t48 11.5t47.5 7q17 0 30.5 -4t18.5 -12q9 -12 0 -38q-1 -5 -1 -10v-48q0 -6 2 -12q4 -10 10.5 -25t11 -26t14.5 -34q22 -48 34.5 -78t32 -77t29 -79t9.5 -47q0 -57 -39.5 -96.5t-95.5 -39.5q-40 0 -73.5 21.5t-50.5 58.5q-9 18 -29 18h-222
q-21 0 -29 -18q-17 -37 -50.5 -58.5t-73.5 -21.5q-56 0 -96 39.5t-40 96.5q0 2 0.5 5t0.5 6t0.5 6t1.5 6q2 13 -5 23q-30 46 -30 100q0 55 21 104h267q-22 -20 -29.5 -53t0.5 -70q11 -46 41.5 -74t70.5 -28q9 0 18 2q99 16 161 83t73 168q5 45 -5.5 83.5t-34.5 66.5
q-1 0 -7 7q-11 10 -31 3q-14 -5 -5 -15q29 -19 43 -56.5t9 -84.5q-11 -100 -69 -155t-139 -69q-7 -1 -13 -1q-40 0 -64 38t-20 81t33 58v48h-319q-33 -59 -33 -136q0 -63 35 -117q0 -3 -1 -6v-6q-1 -3 -1 -5.5t-0.5 -5.5t-0.5 -6q0 -70 49.5 -119t118.5 -49q50 0 91.5 27
t61.5 71h222q10 -21 25.5 -39.5t35 -31.5t43.5 -20t49 -7q69 0 118 49t49 119q0 23 -18.5 77.5t-40.5 105.5t-49 113t-35 82z" />
    <glyph glyph-name="uniE638" unicode="&#xe638;" 
d="M466 -5q-9 9 -18 0l-39 39q25 34 32 75t-5.5 81.5t-43.5 70.5q-33 34 -78 45.5t-90 0t-79 -45.5q-51 -51 -51 -123.5t51 -123.5q46 -46 111.5 -50.5t116.5 34.5l38 -39q-9 -9 0 -18l89 -89q4 -4 9 -4q2 0 4.5 1t4.5 3l36 37q3 2 4 5.5t0 6.5t-4 6zM333 74
q-27 -26 -64.5 -26t-63.5 26t-26 63.5t26 64t63.5 26.5t64.5 -26q17 -18 23 -41t0 -46.5t-23 -40.5zM490 485q13 -41 34.5 -69.5t46 -42t51.5 -13.5t51.5 13.5t46 42.5t35.5 69q13 8 25 26t15 36q7 57 -24 57q-2 24 -8 45.5t-18 40t-28.5 31.5t-40 20.5t-52.5 7.5
q-70 0 -108 -38.5t-43 -106.5q-31 0 -23 -57q2 -18 14 -36t26 -26zM815 349l-62 13l-131 -260l-130 260l-63 -13q-19 -4 -37 -12t-34 -20q14 -7 27.5 -16.5t24.5 -21.5q48 -48 57 -116t-25 -126l13 -12q17 1 29 -11l87 -87h391v248q0 63 -41.5 112t-105.5 62z" />
    <glyph glyph-name="uniE639" unicode="&#xe639;" 
d="M786 491q-3 5 -4 7t-3.5 3.5t-4.5 1.5h-8h-135q-12 0 -16.5 -4.5t-4.5 -14.5v-32v-57v-57v-33q0 -13 4 -19.5t14 -8.5q102 -19 126 -24q10 -3 15.5 5t3.5 17.5t-12 10.5q-10 3 -39.5 8.5t-52.5 10.5l-24 5v159h112l60 -138v-172h-1h-34q-6 30 -30 49.5t-55 19.5
t-55 -19.5t-30 -49.5h-1h-174h-1q-2 12 -7.5 22.5t-13.5 19t-18 14.5t-21.5 9.5t-23.5 3.5q-32 0 -55.5 -19.5t-29.5 -49.5h-36v345h310v-241h-85q-7 0 -12 -5t-5 -13q0 -4 2 -8t6 -6.5t9 -2.5h103q7 0 12 5t5 12v3v3v47v90v84v46q0 9 -5 14.5t-12 5.5h-342q-20 0 -20 -17
v-375q0 -11 5 -16.5t15 -5.5l50 1q6 -30 29.5 -50t55 -20t55 20t29.5 49h1h175v0q3 -14 11 -27t19 -22t25.5 -14.5t29.5 -5.5q31 0 55 20t30 50l53 -1q17 2 17 18v197l-15 35q-15 35 -31.5 73t-19.5 44zM352 90q-7 0 -14 2t-12.5 5t-10.5 8t-8.5 10.5t-5 12.5t-1.5 14
q0 21 15 36t36.5 15t36.5 -15t15 -36q0 -5 -0.5 -9t-2 -7.5t-3 -7.5t-4 -7t-5.5 -6t-6 -5t-6.5 -4t-7.5 -3.5t-8 -2t-8 -0.5zM697 90q-21 0 -36.5 15t-15.5 36.5t15.5 36.5t36.5 15t36.5 -15t15.5 -36q0 -14 -7 -26t-19 -19t-26 -7z" />
    <glyph glyph-name="uniE63A" unicode="&#xe63a;" 
d="M779 -125q-5 0 -9 3l-258 187l-258 -187q-9 -7 -17.5 -0.5t-5.5 16.5l98 304l-257 187q-9 6 -6 17q1 3 3 5.5t5 3.5t6 1h319l99 303q3 11 14 11t14 -11l99 -303h319q5 0 9 -2.5t5 -7.5q3 -11 -5 -17l-258 -187l98 -304q4 -10 -5 -16q-2 -2 -4.5 -2.5t-4.5 -0.5z" />
    <glyph glyph-name="uniE63B" unicode="&#xe63b;" 
d="M416 108q-57 0 -109 21.5t-93 62.5q-83 84 -83 203.5t83.5 203.5t201 84t201 -84t83.5 -203.5t-83 -203.5q-41 -41 -92.5 -62.5t-108.5 -21.5zM415.5 635q-98.5 0 -167.5 -70q-34 -35 -52 -79.5t-18 -90t18 -90.5t52 -79q69 -70 167.5 -70t168 70t69.5 169.5t-69.5 169.5
t-168 70zM867 -83q-10 0 -17 7l-262 265q-3 3 -5 7.5t-2 9t2 9t5 8.5q7 7 17 7t17 -7l262 -265q7 -7 7 -17t-7 -17q-4 -3 -8 -5t-9 -2z" />
    <glyph glyph-name="uniE63C" unicode="&#xe63c;" 
d="M512 264l-192 240h384z" />
    <glyph glyph-name="uniE63D" unicode="&#xe63d;" 
d="M512 514l-174 -217h348z" />
  </font>
</defs>
</svg>
